<svg xmlns="http://www.w3.org/2000/svg" version="1.1" xmlns:xlink="http://www.w3.org/1999/xlink" xmlns:svgjs="http://svgjs.dev/svgjs" width="2000" height="3553" viewBox="0 0 2000 3553"><g transform="matrix(1,0,0,1,-3.150321847784994,1.4384615384615245)"><svg viewBox="0 0 139 247" data-background-color="#000000" preserveAspectRatio="xMidYMid meet" height="3553" width="2000" xmlns="http://www.w3.org/2000/svg" xmlns:xlink="http://www.w3.org/1999/xlink"><g id="tight-bounds" transform="matrix(1,0,0,1,0.21894736842105544,-0.09999999999999432)"><svg viewBox="0 0 138.5621052631579 247.2" height="247.2" width="138.5621052631579"><g><svg viewBox="0 0 138.5621052631579 247.2" height="247.2" width="138.5621052631579"><g><svg viewBox="0 0 138.5621052631579 247.2" height="247.2" width="138.5621052631579"><g id="textblocktransform"><svg viewBox="0 0 138.5621052631579 247.2" height="247.2" width="138.5621052631579" id="textblock"><g><svg viewBox="0 0 138.5621052631579 247.2" height="247.2" width="138.5621052631579"><g transform="matrix(1,0,0,1,0,0)"><svg width="138.5621052631579" viewBox="3.9 -38 21.3 38" height="247.2" data-palette-color="url(#cc8671b4-f41d-433f-99ee-e8b8dfa219da)"></svg></g></svg></g></svg></g></svg></g></svg></g><defs></defs><mask id="6a01d2c4-dab0-492d-8912-62a4c146eb9c"><g id="SvgjsG1348"><svg viewBox="0 0 138.5621052631579 247.2" height="247.2" width="138.5621052631579"><g><svg viewBox="0 0 138.5621052631579 247.2" height="247.2" width="138.5621052631579"><g><svg viewBox="0 0 138.5621052631579 247.2" height="247.2" width="138.5621052631579"><g id="SvgjsG1347"><svg viewBox="0 0 138.5621052631579 247.2" height="247.2" width="138.5621052631579" id="SvgjsSvg1346"><g><svg viewBox="0 0 138.5621052631579 247.2" height="247.2" width="138.5621052631579"><g transform="matrix(1,0,0,1,0,0)"><svg width="138.5621052631579" viewBox="3.9 -38 21.3 38" height="247.2" data-palette-color="url(#cc8671b4-f41d-433f-99ee-e8b8dfa219da)"><path d="M9.8 0L3.9 0 3.9-38 9.8-38 9.8-19.35 9.6-13.5 17.25-24.9 24.35-24.9 15.65-13.45 25.2 0 17.65 0 9.6-12.05 9.8-5.95 9.8 0Z" opacity="1" transform="matrix(1,0,0,1,0,0)" fill="white" class="wordmark-text-0" id="SvgjsPath1345"></path></svg></g></svg></g></svg></g></svg></g></svg></g><defs><mask></mask></defs></svg><rect width="138.5621052631579" height="247.2" fill="black" stroke="none" visibility="hidden"></rect></g></mask><linearGradient x1="0" x2="1" y1="0.5" y2="0.5" id="cc8671b4-f41d-433f-99ee-e8b8dfa219da"><stop stop-color="#f00b51" offset="0"></stop><stop stop-color="#730062" offset="1"></stop></linearGradient><rect width="138.5621052631579" height="247.2" fill="url(#cc8671b4-f41d-433f-99ee-e8b8dfa219da)" mask="url(#6a01d2c4-dab0-492d-8912-62a4c146eb9c)" data-fill-palette-color="primary"></rect></svg><rect width="138.5621052631579" height="247.2" fill="none" stroke="none" visibility="hidden"></rect></g></svg></g></svg>